<svg xmlns="http://www.w3.org/2000/svg" viewBox="0 0 256 256" color="#000"><title>Pote de Mel</title><path fill="currentColor" d="M54,55c0,-9.38884 7.61116,-17 17,-17h114c9.38884,0 17,7.61116 17,17c0,7.14267 -4.40502,13.25649 -10.6466,15.773c10.40534,7.54505 18.30222,16.91968 24.02698,27.227h-7.38039v26c0,6.62742 -5.37258,12 -12,12c-6.62742,0 -12,-5.37258 -12,-12v-26l-114,0v10c0,6.62742 -5.37258,12 -12,12c-6.62742,0 -12,-5.37258 -12,-12l0,-10h-5.38039c5.72476,-10.30731 13.62164,-19.68195 24.02698,-27.227c-6.24158,-2.51651 -10.6466,-8.63033 -10.6466,-15.773z M226,166c-6,38 -30,64 -58,66h-80c-28,-2 -52,-28 -58,-66c-3.25189,-18.4274 -1.80387,-39.79225 6.25453,-59h0.74547l0,1c0,11.59798 9.40202,21 21,21c11.59798,0 21,-9.40202 21,-21v-1l96,0l0,17c0,11.59798 9.40202,21 21,21c11.59798,0 21,-9.40202 21,-21v-17l2.74547,0c8.0584,19.20775 9.50642,40.5726 6.25453,59zM113.68,221.69345l0,-54.66691c-19.23534,1.87362 -34.04,13.39732 -34.04,27.33345c0,13.93613 14.80466,25.45984 34.04,27.33345zM137.6,169.9208v48.8784c5.48738,-2.0151 10.21333,-4.90342 13.7982,-8.40009c1.84378,4.02726 8.89772,6.04089 21.1618,6.04089c-1.22649,-7.35893 -5.92013,-13.61683 -14.08093,-18.77369c0.1855,-1.08405 0.28093,-2.18741 0.28093,-3.30631c0,-10.60845 -8.57863,-19.81901 -21.16,-24.4392zM131.16,220.67622v-52.63244c-3.49488,-0.77241 -7.19986,-1.21532 -11.04,-1.27646v55.18537c3.84014,-0.06114 7.54512,-0.50405 11.04,-1.27646zM119.66,162.33161c0.98503,-0.56871 1.84591,-1.28819 2.58002,-2.13148c0.90416,1.30295 2.07652,2.34936 3.50056,3.0439c5.93683,2.89558 13.99973,-1.42089 18.009,-9.64111c4.00927,-8.22022 2.44668,-17.23136 -3.49015,-20.12695c-5.47428,-2.66999 -12.75626,0.79206 -17.00101,7.79242c-0.38272,-0.86322 -0.81828,-1.72143 -1.30727,-2.56839c-5.33507,-9.24061 -15.01071,-13.64238 -21.61115,-9.83161c-6.60044,3.81076 -7.62622,14.391 -2.29115,23.63161c5.33507,9.24061 15.01071,13.64238 21.61115,9.83161zM104.02442,149.05c-3.42969,-5.94039 -3.53464,-12.30065 -0.23442,-14.20604c3.30022,-1.90538 8.75589,1.36564 12.18558,7.30604c3.42969,5.94039 3.53464,12.30065 0.23442,14.20604c-3.30022,1.90538 -8.75589,-1.36564 -12.18558,-7.30604zM128.4521,146.14184c2.33874,-4.79513 6.27083,-7.68925 8.78256,-6.46419c2.51173,1.22505 2.65197,6.10538 0.31323,10.90051c-2.33874,4.79513 -6.27083,7.68925 -8.78256,6.46419c-2.51173,-1.22505 -2.65197,-6.10538 -0.31323,-10.90051z"/></svg>
